<svg width="364" height="360" viewBox="0 0 364 360" fill="none" xmlns="http://www.w3.org/2000/svg">
<path d="M284.645 207.253L272.84 254.913H148.663L152.598 239.172H153.472C160.905 239.172 167.464 233.925 169.65 226.929C169.65 226.492 184.516 167.464 184.516 167.464C184.954 166.59 184.954 165.278 184.954 164.403C184.954 158.719 180.144 153.91 174.46 153.91H173.585L176.646 141.667H243.981L240.921 153.91H240.046C232.176 153.91 225.617 159.156 223.431 166.59L208.565 225.617V226.055C208.565 226.929 208.565 227.366 208.565 228.241C208.565 233.925 213.374 238.735 219.059 238.735H229.552C248.354 238.297 264.095 225.18 268.467 207.69V206.816H284.645V207.253ZM212.5 103.189C236.548 83.5134 267.593 71.7078 300.823 71.7078C307.819 71.7078 314.815 72.1451 321.811 73.4569C362.911 105.813 389.583 156.096 389.583 212.5C357.227 147.788 289.892 103.189 212.5 103.189ZM351.543 322.248C319.187 363.349 268.904 390.021 212.5 390.021C277.212 357.665 321.811 290.329 321.811 212.937C341.487 236.986 353.292 268.03 353.292 301.26C353.292 308.256 352.855 315.252 351.543 322.248ZM123.74 212.5C123.74 163.529 163.529 123.74 212.063 123.74C261.034 123.74 300.386 163.529 300.386 212.5C300.386 261.471 260.597 300.823 212.063 300.823C163.529 301.26 123.74 261.471 123.74 212.5ZM123.74 353.292C116.744 353.292 109.748 352.855 102.752 351.543C61.6512 319.187 35.4167 268.904 35.4167 212.5C67.7726 277.212 135.108 321.811 212.5 321.811C188.452 341.487 157.407 353.292 123.74 353.292ZM73.4568 103.189C105.813 62.0885 156.096 35.4167 212.5 35.4167C147.788 67.7727 103.189 135.108 103.189 212.5C83.5134 188.452 71.7078 157.407 71.7078 123.74C71.7078 117.181 72.1451 110.185 73.4568 103.189ZM212.5 0C95.3189 0 0 95.3189 0 212.5C0 329.681 95.3189 425 212.5 425C329.681 425 425 329.681 425 212.5C425 95.3189 329.681 0 212.5 0Z" fill="black" fill-opacity="0.03"/>
</svg>
